<?xml version="1.0" encoding="UTF-8"?>
<svg id="a" data-name="Layer 1" xmlns="http://www.w3.org/2000/svg" width="17.191in" height="8.869in" viewBox="0 0 1237.722 638.55">
  <g>
    <path d="M81.227,587.674c-10.506,0-19.827-2.676-27.95-8.006-8.123-5.341-14.65-12.067-19.58-20.191v76.69H17.45v-175.354h14.568v24.135c5.095-7.806,11.704-14.134,19.827-18.993s16.963-7.29,26.518-7.29c8.605,0,16.528,1.796,23.771,5.376,7.243,3.58,13.5,8.358,18.759,14.333,5.247,5.975,9.356,12.866,12.302,20.66,2.946,7.806,4.414,15.847,4.414,24.135,0,8.757-1.35,17.045-4.062,24.839-2.712,7.806-6.562,14.662-11.586,20.543-5.012,5.905-10.988,10.553-17.913,13.981-6.926,3.428-14.533,5.142-22.82,5.142Zm-4.531-14.345c6.691,0,12.737-1.432,18.148-4.296,5.412-2.864,10.072-6.644,13.981-11.351,3.897-4.696,6.891-10.025,8.957-16,2.066-5.975,3.111-12.138,3.111-18.512,0-6.691-1.197-13.065-3.592-19.111-2.383-6.057-5.646-11.387-9.79-16.012-4.144-4.613-9.039-8.276-14.697-10.988-5.646-2.712-11.739-4.062-18.266-4.062-4.144,0-8.452,.833-12.901,2.512-4.461,1.667-8.687,3.897-12.666,6.691-3.979,2.782-7.372,6.045-10.154,9.79-2.782,3.745-4.496,7.689-5.13,11.821v38.222c1.902,4.461,4.332,8.605,7.278,12.431,2.946,3.815,6.292,7.125,10.037,9.908,3.745,2.794,7.806,4.977,12.185,6.574,4.379,1.596,8.875,2.383,13.5,2.383Z" fill="#231f20"/>
    <path d="M193.755,410.888h16.247v146.207c0,4.613,1.268,8.241,3.815,10.87,2.547,2.618,6.128,3.932,10.753,3.932,1.749,0,3.827-.235,6.21-.716,2.395-.47,4.613-1.103,6.691-1.913l2.864,13.147c-3.029,1.28-6.726,2.313-11.105,3.099-4.379,.798-8.17,1.197-11.351,1.197-7.489,0-13.382-2.113-17.679-6.327-4.296-4.226-6.445-10.154-6.445-17.796v-151.701Z" fill="#231f20"/>
    <path d="M323.234,587.674c-13.054,0-22.938-4.508-29.617-13.5-6.691-9.004-10.037-22.421-10.037-40.252v-73.109h16.247v70.233c0,28.197,9.626,42.283,28.901,42.283,4.778,0,9.473-.786,14.098-2.383,4.613-1.596,8.875-3.897,12.784-6.926,3.897-3.029,7.407-6.609,10.506-10.753,3.111-4.144,5.611-8.839,7.525-14.098v-78.357h16.247v103.442c0,4.461,1.996,6.691,5.975,6.691v14.333c-3.193,.481-5.423,.716-6.691,.716-3.663,0-6.809-1.115-9.438-3.346-2.629-2.23-3.944-5.012-3.944-8.358v-17.197c-5.576,9.708-12.983,17.233-22.21,22.574-9.238,5.329-19.357,8.006-30.345,8.006Z" fill="#231f20"/>
    <path d="M640.487,585.28h-16.247v-69.517c0-14.497-2.266-25.168-6.809-32.012-4.543-6.844-11.434-10.271-20.672-10.271-4.778,0-9.274,.869-13.488,2.629-4.226,1.749-8.123,4.214-11.715,7.395-3.58,3.193-6.726,6.973-9.426,11.351-2.712,4.379-4.778,9.203-6.222,14.45v75.974h-16.235v-69.517c0-14.814-2.242-25.567-6.691-32.258-4.461-6.679-11.316-10.025-20.543-10.025-9.403,0-17.761,3.263-25.086,9.79-7.337,6.539-12.584,15.131-15.765,25.802v76.208h-16.247v-124.467h14.803v28.197c5.095-9.567,11.786-17.01,20.073-22.339,8.276-5.341,17.444-8.006,27.469-8.006,10.518,0,18.958,2.946,25.321,8.839,6.374,5.893,10.201,13.617,11.469,23.172,11.633-21.341,27.715-32.012,48.258-32.012,6.844,0,12.701,1.28,17.561,3.827,4.86,2.547,8.757,6.163,11.704,10.87,2.946,4.696,5.095,10.354,6.456,16.951,1.35,6.621,2.031,13.981,2.031,22.104v72.863Z" fill="#231f20"/>
    <path d="M763.744,587.674c-9.72,0-18.712-2.477-26.999-7.407-8.276-4.942-14.732-11.316-19.346-19.111v24.123h-14.568v-174.392h16.247v75.962c5.564-8.44,12.255-15.249,20.062-20.426,7.806-5.165,16.963-7.759,27.469-7.759,8.605,0,16.411,1.831,23.419,5.494,7.008,3.663,12.936,8.558,17.796,14.697,4.86,6.128,8.605,13.054,11.222,20.778,2.629,7.724,3.944,15.648,3.944,23.771,0,8.757-1.514,17.045-4.531,24.851-3.029,7.795-7.208,14.603-12.549,20.426-5.341,5.811-11.621,10.424-18.876,13.852-7.243,3.428-15.014,5.142-23.29,5.142Zm-3.815-14.345c6.844,0,13.089-1.385,18.747-4.179,5.658-2.782,10.518-6.527,14.58-11.222,4.05-4.696,7.243-10.037,9.555-16.012,2.301-5.975,3.463-12.138,3.463-18.512,0-6.527-1.08-12.819-3.228-18.876-2.148-6.045-5.177-11.422-9.074-16.117-3.909-4.696-8.569-8.44-13.981-11.234-5.412-2.782-11.387-4.179-17.913-4.179-4.942,0-9.555,.833-13.864,2.512-4.296,1.667-8.276,3.932-11.938,6.809-3.663,2.864-6.973,6.175-9.919,9.908-2.946,3.745-5.376,7.689-7.278,11.833v38.703c.634,4.296,2.348,8.323,5.13,12.056,2.782,3.745,6.175,6.973,10.154,9.673,3.979,2.712,8.205,4.86,12.666,6.456,4.449,1.596,8.757,2.383,12.901,2.383Z" fill="#231f20"/>
    <path d="M878.667,434.776v-23.888h16.247v23.888h-16.247Zm0,150.503v-124.467h16.247v124.467h-16.247Z" fill="#231f20"/>
    <path d="M1063.084,585.28h-16.235v-69.517c0-14.814-2.16-25.567-6.456-32.258-4.296-6.679-10.988-10.025-20.062-10.025-4.778,0-9.555,.869-14.345,2.629-4.778,1.749-9.238,4.214-13.37,7.395-4.144,3.193-7.771,6.973-10.87,11.351-3.111,4.379-5.459,9.121-7.043,14.216v76.208h-16.247v-124.467h14.803v28.197c2.547-4.461,5.693-8.569,9.438-12.314,3.745-3.733,7.924-6.961,12.549-9.673,4.613-2.7,9.508-4.778,14.685-6.21,5.177-1.432,10.553-2.148,16.129-2.148,7.008,0,12.854,1.28,17.561,3.827,4.696,2.547,8.475,6.128,11.34,10.741,2.876,4.625,4.942,10.271,6.222,16.963,1.268,6.691,1.902,14.098,1.902,22.222v72.863Z" fill="#231f20"/>
    <path d="M1175.847,586.947c-8.605,0-16.446-1.784-23.536-5.365-7.09-3.592-13.218-8.323-18.395-14.216-5.177-5.893-9.191-12.666-12.067-20.308-2.864-7.642-4.296-15.53-4.296-23.654,0-8.605,1.397-16.845,4.179-24.722,2.782-7.888,6.726-14.779,11.833-20.672,5.095-5.881,11.187-10.588,18.266-14.087,7.09-3.51,14.932-5.259,23.536-5.259,10.671,0,19.909,2.665,27.715,8.006,7.795,5.329,14.486,12.056,20.062,20.179v-26.037h14.58v124.948c0,8.593-1.643,16.2-4.907,22.808-3.263,6.609-7.642,12.15-13.136,16.61-5.494,4.449-11.985,7.795-19.463,10.025-7.489,2.23-15.378,3.346-23.654,3.346-14.18,0-25.649-2.547-34.406-7.642-8.757-5.095-15.847-11.938-21.259-20.543l10.037-7.888c4.93,7.971,11.469,13.817,19.58,17.561,8.123,3.745,16.81,5.611,26.048,5.611,6.045,0,11.821-.833,17.315-2.5,5.494-1.679,10.271-4.144,14.333-7.407,4.062-3.263,7.29-7.407,9.685-12.42,2.383-5.024,3.58-10.87,3.58-17.561v-24.605c-4.942,7.959-11.516,14.251-19.709,18.864-8.205,4.625-16.845,6.926-25.919,6.926Zm4.531-13.617c4.778,0,9.473-.869,14.098-2.618,4.613-1.761,8.804-4.109,12.549-7.055,3.733-2.946,6.879-6.245,9.426-9.908,2.547-3.663,4.226-7.407,5.024-11.234v-38.456c-1.761-4.461-4.179-8.605-7.29-12.431-3.111-3.815-6.574-7.078-10.389-9.79-3.827-2.712-7.924-4.86-12.302-6.456-4.39-1.585-8.804-2.383-13.265-2.383-7.008,0-13.218,1.479-18.629,4.414-5.423,2.958-10.037,6.809-13.864,11.598-3.815,4.778-6.726,10.189-8.71,16.235-1.996,6.057-2.993,12.185-2.993,18.395,0,6.691,1.197,13.065,3.592,19.123,2.383,6.045,5.646,11.34,9.79,15.883,4.144,4.543,9.039,8.123,14.697,10.753,5.646,2.629,11.739,3.932,18.266,3.932Z" fill="#231f20"/>
  </g>
  <g>
    <path d="M534.978,256.434c-18.391-8.967-42.798-14.548-73.819-16.144l-3.699-.184-57.813-2.216c-4.804-6.02-7.222-12.051-7.826-18.675-.595-2.996-.587-5.989-.22-8.981,.029-.243,.11-.48,.143-.722,.399-2.802,1.05-5.605,1.893-8.406,.288,.043,.595,.024,.884,.066,7.535,1.043,15.684,1.753,23.168,1.753,6.438,0,12.688-.412,18.818-1.048,56.019-5.767,97.809-37.906,97.809-96.171,0-21.732-6.648-36.22-13.287-45.884,13.287,1.815,35.018,3.016,46.489,3.016,3.016,0,3.622-1.201,3.622-3.622V9.712c0-1.233-.186-2.131-.744-2.735-.28-.323-1.029-.344-1.574-.486-.451-.119-.635-.402-1.304-.402h-83.919c-.675,0-1.579-.127-2.334-.169-3.345-.209-7.199-.755-11.596-1.666-12.764-2.405-32.002-4.255-53.09-4.255-76.027,0-120.238,45.32-120.238,103.22,0,27.631,9.592,49.214,24.778,64.834,5.03,5.185,10.689,9.721,16.827,13.63-6.214,10.523-9.514,21.774-10.35,33.671-.137,1.887-.374,3.756-.374,5.668-.177,4.778,.19,9.472,.842,14.1,.259,1.867,.664,3.672,1.067,5.504,.736,3.386,1.719,6.683,2.916,9.922,.311,.815,.394,1.702,.736,2.505,.369,1.109,.924,2.405,1.479,3.514l5.18,9.99c.022,.034,.054,.065,.075,.099-39.549,34.225-55.767,58.882-55.767,78.134,0,39.366,35.285,82.475,112.046,91.262,.535,.061,1.091,.105,1.63,.162,8.718,.937,17.82,1.554,27.605,1.554,94.18,0,154.561-49.506,154.561-111.089,0-30.962-13.938-55.314-44.614-70.247ZM367.678,102.085c0-30.792,18.715-49.506,48.9-49.506,25.34,0,39.829,12.55,45.499,30.786,1.88,6.077,2.782,12.781,2.782,19.855,0,29.597-18.128,47.17-48.281,47.17-32,0-48.9-20.53-48.9-48.305Zm-16.908,237.278c0-8.977,11.285-28.014,28.537-40.111,.032,.014,.059,.033,.091,.047,.185-.184,.185-.369,.37-.369l55.864,2.59,6.202,.233,3.729,.171c36.807,1.814,66.978,9.054,67.006,35.59-.08,22.904-25.419,46.506-82.671,46.506-6.286,0-12.294-.37-17.955-1.062-.559-.069-1.02-.22-1.572-.296-4.971-.672-9.744-1.526-14.107-2.669-29.224-7.627-45.494-24.805-45.494-40.631Z" fill="#231f20"/>
    <path d="M865.157,237.331V10.175c0-2.96-.554-4.07-4.254-4.07h-63.448c-3.515,0-4.81,1.11-4.81,4.07V224.567c-14.983,13.874-32.001,21.828-54.94,21.828-36.256,0-52.534-22.937-52.534-60.488V10.175c0-2.96-.555-4.07-4.255-4.07h-63.263c-3.7,0-4.81,.555-4.81,4.07V194.415c0,84.537,44.026,115.243,101.37,115.243,27.192,0,57.899-6.659,83.981-30.706,.555,6.105,2.405,14.983,4.07,21.088,.74,2.405,1.849,3.7,6.104,3.7h55.494c3.7,0,5.549-1.295,4.81-4.255-1.11-12.764-3.515-30.892-3.515-62.153Z" fill="#231f20"/>
    <path d="M1201.76,269.027c-25.493-8.016-34.153-73.159-34.153-73.159l-.005,.006V119.497c0-66.962-36.257-119.497-120.054-119.497-32.741,0-65.854,6.104-91.935,18.129-2.96,1.85-3.514,2.959-3.514,6.103v52.35c0,3.7,2.959,4.255,4.809,3.7,22.382-10.915,48.836-16.834,79.172-16.834,53.089,0,60.859,31.262,60.859,45.135v7.4c-5.365-.739-19.238-1.294-37.365-1.294-78.433,0-135.961,32-135.961,96.005,0,68.258,52.534,98.964,118.388,98.964,13.298,0,25.96-.721,38.682-2.283l-.034,.043c25.68-1.646,148.971-29.633,121.113-38.391Zm-206.745-58.333c0-25.897,21.088-41.621,68.812-41.621,13.874,0,24.048,.556,33.112,1.85v74.178c-13.319,5.365-27.192,7.215-42.916,7.215-43.471,0-59.008-19.238-59.008-41.621Z" fill="#231f20"/>
    <path d="M275.202,269.027c-17.572-5.525-27.143-38.183-31.396-57.95V119.497C243.806,52.535,207.735,0,123.752,0,91.196,0,57.899,6.104,32.003,18.129c-3.146,1.85-3.7,2.959-3.7,6.103v52.35c0,3.7,2.959,4.255,4.81,3.7,22.382-10.915,49.02-16.834,79.172-16.834,53.089,0,60.859,31.262,60.859,45.135v7.4c-5.365-.739-19.239-1.294-37.367-1.294C57.345,114.689,0,146.689,0,210.694c0,68.258,52.535,98.964,118.203,98.964,21.807,0,41.99-1.766,63.477-6.517,44.068-8.515,115.416-27.231,93.522-34.114Zm-203.984-58.333c0-25.897,21.089-41.621,68.813-41.621,13.873,0,24.233,.556,33.112,1.85v74.178c-13.134,5.365-27.008,7.215-42.731,7.215-43.471,0-59.195-19.238-59.195-41.621Z" fill="#231f20"/>
  </g>
</svg>