<?xml version="1.0" encoding="UTF-8"?>
<svg id="a" data-name="Layer 1" xmlns="http://www.w3.org/2000/svg" width="1280" height="1718.101" viewBox="0 0 1280 1718.101">
  <path d="M1259.885,918.566c15.406,59.96,22.38,123.25,19.466,188.624-1.665,36.85-6.454,72.868-14.157,107.844-66.102-20.299-132.203-13.845-198.617,15.406-43.825,19.258-88.274,37.475-136.991,42.16-57.357,5.621-107.845-17.592-158.852-37.684-43.305-16.967-86.193-32.061-134.077-31.645-46.011,.52-86.817,16.343-128.56,32.166-47.051,17.904-93.063,39.244-145.839,37.579-53.194-1.562-100.766-21.757-147.506-42.472-67.767-30.188-133.452-35.393-199.762-14.261-9.785-44.45-14.99-90.669-14.99-138.137,0-54.651,6.871-107.74,19.779-158.331v-.104c21.131-6.142,42.888-10.618,65.789-11.867,39.661-2.186,75.679,8.016,110.863,20.819,4.789,1.769,9.577,3.54,14.365,5.413,14.365,5.517,28.627,11.243,42.992,16.551,2.29,.833,4.684,1.666,6.975,2.499h.104c9.265,3.435,18.53,6.766,27.899,9.785,3.955,1.249,8.015,2.498,11.971,3.747,22.277,6.558,44.866,11.034,68.808,10.93,49.55-.313,93.375-20.611,138.345-37.058,9.681-3.54,19.153-7.183,28.627-10.722,17.28-6.454,34.56-12.491,52.569-16.655,4.372-1.041,8.848-1.978,13.324-2.707,5.101-.937,10.202-1.665,15.407-2.082,2.602-.312,5.309-.52,7.911-.625,16.655-.832,32.686,.208,48.3,2.707,2.915,.52,5.934,.937,8.849,1.562,4.06,.832,8.119,1.665,12.179,2.602,6.767,1.561,13.532,3.435,20.195,5.413,21.028,6.246,41.535,14.262,62.25,22.589,36.018,14.365,72.243,28.418,110.863,33.207,2.29,.312,4.58,.52,6.87,.729,6.975,.625,14.053,.937,21.132,.937,8.328,0,16.551-.625,24.567-1.561,16.135-1.874,31.749-5.622,47.052-10.41,19.05-5.934,37.683-13.429,56.212-21.028,11.138-4.476,22.277-9.161,33.415-13.532,7.495-2.915,14.99-5.622,22.485-8.224,45.074-15.406,88.899-17.8,134.285-9.993,8.64,1.457,17.176,3.435,25.504,5.829Z" fill="#4693cf"/>
  <path d="M1265.238,1215.012c-24.463,111.071-78.073,211.629-152.397,293.033-115.132,126.477-279.917,206.945-461.878,209.963-191.642,3.227-364.339-77.761-483.634-208.402-74.221-81.3-127.831-181.857-152.294-293.345,66.31-21.131,131.995-15.926,199.762,14.261,46.739,20.715,94.312,40.91,147.505,42.472,52.777,1.665,98.788-19.674,145.84-37.579,41.743-15.823,82.549-31.646,128.559-32.166,47.885-.416,90.773,14.678,134.077,31.645,51.008,20.091,101.494,43.305,158.852,37.684,48.717-4.684,93.167-22.901,136.992-42.16,66.413-29.251,132.515-35.705,198.616-15.406Z" fill="#4273b8"/>
  <polyline points="745.255 446.8 640.278 312.389 535.911 446.698 410.447 607.748 167.297 607.748 639.973 0 1114.277 607.748" fill="#305370"/>
  <path d="M1174.942,726.819h-207.048c.312,.937,.416,1.874,.625,2.811,1.457,7.391,2.186,15.094,2.186,22.901,0,12.847-2.12,25.172-5.808,36.795h-225.814c-2.549-11.702-3.568-23.861-2.699-36.067,.312-3.54,.416-7.183,.416-10.826,0-67.142-44.866-121.481-100.245-121.481s-100.35,54.339-100.35,121.481c0,6.038,.417,11.971,1.041,17.801,1.207,9.73,1.085,19.561-.439,29.092h-227.603c-4.468-14.27-6.435-29.458-5.239-44.915,0-.52,.104-1.041,.104-1.561,.416-5.517,1.145-10.826,2.394-16.031H104.93c-38.412,58.399-67.455,123.355-85.151,192.892,21.131-6.142,42.888-10.618,65.789-11.867,39.661-2.186,75.679,8.016,110.863,20.819,19.258,6.974,38.204,14.782,57.462,21.861,2.29,.832,4.58,1.665,6.871,2.602h.104c9.265,3.331,18.53,6.662,27.899,9.785,3.955,1.249,8.015,2.498,11.971,3.747,22.277,6.558,44.866,11.034,68.808,10.93,49.55-.313,93.375-20.611,138.345-37.058,9.681-3.54,19.153-7.183,28.627-10.722,17.28-6.454,34.56-12.491,52.569-16.655,4.372-1.041,8.848-1.978,13.324-2.707,5.101-.937,10.202-1.665,15.407-2.082,2.602-.208,5.309-.416,7.911-.52,16.551-.937,32.582,.208,48.3,2.602,2.915,.52,5.934,.937,8.849,1.562,4.06,.832,8.119,1.665,12.179,2.602,6.767,1.561,13.532,3.435,20.195,5.413,21.028,6.246,41.535,14.262,62.25,22.589,36.018,14.365,72.243,28.418,110.863,33.207,9.161,1.145,18.529,1.769,28.106,1.769,8.328,0,16.447-.625,24.463-1.665,16.135-1.874,31.749-5.622,47.052-10.41,19.05-5.934,37.683-13.429,56.212-21.028,11.138-4.476,22.277-9.161,33.415-13.532,7.495-2.915,14.99-5.622,22.485-8.224,45.074-15.406,88.899-17.8,134.285-9.993,8.64,1.457,17.176,3.435,25.504,5.829-17.697-69.12-46.739-133.661-84.943-191.747Z" fill="#3fc4ef"/>
  <polygon points="1114.277 607.748 870.77 607.748 745.255 446.8 640.278 312.389 535.911 446.698 410.447 607.748 167.297 607.748 639.973 0 1114.277 607.748" fill="#305370"/>
</svg>