<?xml version="1.0" encoding="UTF-8"?>
<svg id="a" data-name="Layer 1" xmlns="http://www.w3.org/2000/svg" width="1261.415" height="571.955" viewBox="0 0 1261.415 571.955">
  <g>
    <path d="M90.293,312.454l-1.411-.479c-1.532-.597-2.943-1.074-4.239-1.672,1.414,.479,2.825,1.075,4.239,1.554l1.411,.597Z" fill="#fff"/>
    <path d="M402.731,312.215c1.178,.12,2.236,.359,3.297,.718l3.061,.838,6.358,1.911c3.65,17.331,5.061,35.023,4.236,52.833-.354,10.279-1.647,20.439-3.529,30.48l-5.064-1.553c-.236-.12-.354-.12-.589-.12-1.883-.598-3.765-1.196-5.65-1.555-1.765-.477-3.412-.836-5.061-1.074-1.65-.239-3.297-.479-5.061-.718-16.719-1.913-33.788,.956-51.093,8.726-13.773,6.096-27.313,11.714-41.91,13.148-15.066,1.554-28.842-4.064-43.321-10.04l-4.59-1.793c-7.182-2.869-14.365-5.498-21.78-7.411-5.533-1.554-11.183-2.629-17.187-2.988-2-.12-4.004-.239-6.004-.239-15.422,.12-29.077,5.378-42.971,10.758l-6.001,2.391c-12.833,5.019-24.605,10.039-38.26,9.442-15.305-.477-28.845-6.096-44.853-13.268-13.658-6.216-27.077-9.324-40.381-9.324-2.118,0-4.236,.12-6.472,.239-.471,0-.943,.12-1.414,.12-1.647,.12-3.414,.359-5.179,.598-.354,.12-.825,.12-1.178,.239-2.118,.357-4.236,.716-6.358,1.313-.236,0-.468,0-.586,.12-1.885,.479-3.768,.957-5.65,1.555-.236,.12-.471,.12-.707,.238l-4.943,1.674c-2.592-13.387-3.886-26.894-3.886-40.639,0-14.464,1.411-28.809,4.354-42.793l6.358-1.793v-.12l3.061-.836c1.178-.359,2.236-.598,3.297-.838,.707-.239,1.296-.479,2-.597,1.532-.359,2.943-.718,4.357-.956,1.883-.359,3.65-.598,5.415-.838l4.59-.359c9.418-.598,18.012,1.316,26.137,3.945,2.354,.716,4.708,1.553,6.944,2.39,1.414,.479,2.707,1.075,4.121,1.554l5.297,2.152c2.943,1.075,5.886,2.27,8.829,3.465l1.647,.598,.354,.118,1.296,.359c1.414,.479,2.707,.957,4.001,1.436,1.414,.477,2.71,.956,4.121,1.433l3.886,1.316c8.711,2.51,16.127,3.705,23.427,3.705h.236c14.362,0,27.077-4.901,39.321-9.681l16.009-6.096c4.943-1.913,10.358-3.826,16.009-5.14,1.296-.357,2.592-.597,4.004-.836,1.296-.239,2.59-.479,4.004-.598h.589l2.118-.12c4.472-.359,9.065,0,14.951,.838l5.415,1.195c2.118,.477,4.121,.956,6.122,1.674,6.593,1.911,13.186,4.541,19.305,7.052,12.715,5.14,24.252,9.562,36.849,11.117,.822,.12,1.529,.239,2.354,.239,2.354,.238,4.826,.357,7.182,.357,2.943,0,5.768-.12,8.594-.477,5.179-.598,10.358-1.795,16.127-3.587,6.24-2.033,12.244-4.542,18.366-7.053l10.594-4.301c2.354-.957,4.593-1.795,6.947-2.631,12.833-4.423,25.899-5.378,39.91-2.988l4.236,1.075Z" fill="#fff"/>
    <path d="M86.407,323.81l-1.647-.598c-2.943-1.195-5.886-2.39-8.829-3.465l-5.297-2.152c1.765,.716,3.65,1.434,5.533,2.152,2.825,1.075,5.768,2.27,8.711,3.346l1.529,.718Z" fill="#fff"/>
    <path d="M220.731,310.542c-5.886-.838-10.479-1.196-14.951-.838l-2.118,.12c.704-.12,1.293-.12,2-.239,4.708-.239,9.418,0,15.069,.957Z" fill="#fff"/>
    <path d="M84.877,323.093c-2.943-1.076-5.885-2.272-8.71-3.348-1.237-.47-2.474-.943-3.678-1.412-.4-.157-.797-.313-1.191-.47l4.632,1.882c2.943,1.076,5.885,2.272,8.828,3.467l1.65,.596-1.532-.716Zm0,0c-2.943-1.076-5.885-2.272-8.71-3.348-1.237-.47-2.474-.943-3.678-1.412-.4-.157-.797-.313-1.191-.47l4.632,1.882c2.943,1.076,5.885,2.272,8.828,3.467l1.65,.596-1.532-.716Zm120.314-25.462c-.472,.12-.938,.12-1.411,.12h1.411c5.18-.36,10.596,0,16.481,.839-5.649-.839-11.065-1.199-16.481-.959Zm-120.314,25.462c-2.943-1.076-5.885-2.272-8.71-3.348-1.237-.47-2.474-.943-3.678-1.412-.4-.157-.797-.313-1.191-.47l4.632,1.882c2.943,1.076,5.885,2.272,8.828,3.467l1.65,.596-1.532-.716ZM17.658,407.719v.12c.236-.12,.59-.24,.823-.24-.233,0-.587,0-.823,.12Zm67.219-84.625c-2.943-1.076-5.885-2.272-8.71-3.348-1.237-.47-2.474-.943-3.678-1.412-.4-.157-.797-.313-1.191-.47l4.632,1.882c2.943,1.076,5.885,2.272,8.828,3.467l1.65,.596-1.532-.716Zm0,0c-2.943-1.076-5.885-2.272-8.71-3.348-1.237-.47-2.474-.943-3.678-1.412-.4-.157-.797-.313-1.191-.47l4.632,1.882c2.943,1.076,5.885,2.272,8.828,3.467l1.65,.596-1.532-.716Zm0,0c-2.943-1.076-5.885-2.272-8.71-3.348-1.237-.47-2.474-.943-3.678-1.412-.4-.157-.797-.313-1.191-.47l4.632,1.882c2.943,1.076,5.885,2.272,8.828,3.467l1.65,.596-1.532-.716Z" fill="#fff"/>
  </g>
  <g>
    <path d="M413.561,410.708c-8.358,33.948-25.074,65.385-48.501,91.323-38.967,43.508-94.179,68.97-151.511,69.924h-3.532c-58.977,0-115.367-25.1-155.159-69.447-23.427-25.939-40.143-57.494-48.383-91.322l5.65-1.792,.354-.12c1.765-.598,3.414-1.077,5.179-1.436,.236-.12,.589-.239,.822-.239,4.004-1.074,7.889-1.672,11.893-1.911,2-.12,3.883-.239,5.886-.239,11.652,0,23.545,2.629,35.668,8.127,4.121,1.914,8.243,3.706,12.362,5.38,4.004,1.554,8.004,3.108,12.008,4.423,3.768,1.196,7.418,2.151,11.183,2.869,1.178,.239,2.357,.479,3.532,.598,1.296,.239,2.472,.479,3.768,.598,2.118,.238,4.354,.357,6.475,.477,15.773,.597,29.549-5.021,42.85-10.279l6.711-2.629c12.712-4.901,24.838-9.563,38.142-9.683h.471c10.594,0,20.484,2.629,30.138,6.096,3.294,1.196,6.59,2.39,9.887,3.706l4.593,1.792c15.184,6.216,30.96,12.551,48.854,10.758,16.362-1.554,30.845-7.531,45.44-14.105,15.54-6.931,30.491-9.562,45.089-7.768,1.296,.12,2.59,.239,4.004,.598,1.647,.239,3.179,.597,4.826,.956,1.765,.357,3.532,.836,5.297,1.434l.354,.12,5.65,1.792Z" fill="#fff"/>
    <path d="M18.481,407.6c-.233,0-.586,.12-.822,.239v-.12c.236-.12,.589-.12,.822-.12Z" fill="#fff"/>
  </g>
  <polygon points="369.544 207.64 276.894 207.64 210.017 120.606 142.595 208.639 50.182 208.639 209.902 0 369.544 207.64" fill="#fff"/>
  <g>
    <path d="M412.385,302.295l-3.179-.836c-1.06-.36-2.116-.6-3.297-.959-1.762-.356-3.53-.836-5.413-1.073-.472-.12-.827-.12-1.178-.24-1.181-.24-2.355-.36-3.533-.48-1.411-.236-2.825-.356-4.235-.476-12.715-1.079-24.844,.476-36.85,4.66-2.47,.836-4.826,1.795-7.296,2.751l-10.832,4.42c-5.767,2.392-11.538,4.783-17.423,6.575-5.062,1.552-9.533,2.631-14.008,3.108-4.944,.716-10.242,.596-15.307,0-11.183-1.436-21.54-5.379-33.783-10.399-6.476-2.631-13.306-5.26-20.366-7.411-2.359-.716-4.593-1.316-6.83-1.912l-7.181-1.432c-5.649-.839-11.065-1.199-16.481-.959-.472,.12-.938,.12-1.411,.12l-1.414,.12c-1.765,.12-3.651,.48-5.298,.72-1.647,.236-3.179,.596-4.711,.953-5.413,1.316-10.357,2.991-15.064,4.783h-.118c-.827,.24-1.532,.6-2.241,.836l-16.127,6.096c-11.771,4.663-22.954,8.964-35.079,8.964-6.003-.117-12.715-.953-20.248-3.224l-3.651-1.196c-.236-.12-.472-.12-.709-.24-1.647-.6-3.412-1.196-5.531-1.912-.827-.36-1.647-.6-2.588-.956l-.354-.12-.354-.12-1.411-.596c-1.414-.48-2.825-1.076-4.238-1.556-1.414-.596-2.828-1.076-4.238-1.672-2.001-.836-3.884-1.556-5.885-2.272h-.121c-1.293-.596-2.585-1.076-3.881-1.552-11.183-4.187-23.663-7.891-37.674-7.055-1.765,0-3.53,.24-5.298,.48-1.765,.24-3.53,.476-5.416,.836-2.706,.476-5.413,1.076-8.237,1.912-1.063,.24-2.119,.48-3.297,.836l-3.179,.956c5.023-18.836,12.542-36.857,22.409-53.588H108.828c-.072,.516-.128,1.046-.171,1.592-.236,2.991,0,5.859,.472,8.607h62.39c0-.956-.115-1.912-.115-2.748-.233-2.152-.469-4.304-.469-6.455,0-25.102,17.069-45.424,37.907-45.424s37.907,20.322,37.907,45.424c0,1.312-.118,2.628-.236,3.944-.118,1.672-.118,3.467,.118,5.26h62.393c.354-2.032,.473-4.064,.473-5.976,0-1.802-.082-3.524-.387-5.226h80.311c10.239,16.968,17.948,35.118,22.964,54.114Z" fill="#fff"/>
    <path d="M221.674,298.589c-5.886-.838-11.304-1.196-16.483-.838h-1.411c.471,0,.94,0,1.411-.12,5.415-.239,10.833,.12,16.483,.957Z" fill="#fff"/>
    <path d="M88.882,311.858c-1.414-.48-2.825-1.076-4.238-1.556,1.296,.6,2.706,1.076,4.238,1.672l1.411,.48-1.411-.596Zm116.781-2.272c-.709,.12-1.296,.12-2.001,.24l2.119-.12c4.471-.36,9.064,0,14.95,.836-5.649-.956-10.36-1.196-15.068-.956Zm-116.781,2.272c-1.414-.48-2.825-1.076-4.238-1.556,1.296,.6,2.706,1.076,4.238,1.672l1.411,.48-1.411-.596Z" fill="#fff"/>
  </g>
  <path d="M519.931,507.551c-6.736,0-12.712-1.716-17.92-5.133-5.208-3.424-9.393-7.737-12.554-12.945v49.169h-10.416v-112.428h9.34v15.474c3.266-5.005,7.504-9.062,12.712-12.178s10.876-4.674,17.002-4.674c5.517,0,10.597,1.152,15.241,3.447,4.644,2.296,8.655,5.359,12.027,9.19,3.364,3.831,5.998,8.249,7.888,13.246,1.889,5.005,2.83,10.161,2.83,15.474,0,5.615-.866,10.928-2.604,15.926-1.739,5.005-4.207,9.4-7.428,13.171-3.214,3.786-7.045,6.766-11.485,8.964-4.441,2.198-9.318,3.297-14.631,3.297Zm-2.905-9.197c4.29,0,8.166-.918,11.636-2.755,3.47-1.836,6.458-4.26,8.964-7.278,2.499-3.011,4.418-6.427,5.743-10.258s1.994-7.782,1.994-11.869c0-4.29-.768-8.377-2.303-12.253-1.528-3.884-3.62-7.301-6.277-10.266-2.657-2.958-5.795-5.306-9.423-7.045-3.62-1.739-7.526-2.604-11.711-2.604-2.657,0-5.419,.534-8.271,1.611-2.86,1.069-5.569,2.499-8.121,4.29-2.551,1.784-4.727,3.876-6.51,6.277s-2.883,4.93-3.289,7.579v24.506c1.219,2.86,2.777,5.517,4.666,7.97,1.889,2.446,4.034,4.568,6.435,6.352,2.401,1.791,5.005,3.191,7.812,4.215,2.807,1.024,5.69,1.528,8.655,1.528Z" fill="#fff"/>
  <path d="M592.078,394.205h10.416v93.74c0,2.958,.813,5.283,2.446,6.969,1.633,1.678,3.929,2.521,6.894,2.521,1.121,0,2.454-.151,3.981-.459,1.535-.301,2.958-.707,4.29-1.227l1.836,8.429c-1.942,.82-4.313,1.483-7.12,1.987-2.807,.512-5.238,.768-7.278,.768-4.802,0-8.58-1.355-11.335-4.057-2.755-2.709-4.132-6.51-4.132-11.41v-97.263Z" fill="#fff"/>
  <path d="M675.093,507.551c-8.369,0-14.706-2.89-18.989-8.655-4.29-5.773-6.435-14.375-6.435-25.808v-46.874h10.416v45.03c0,18.078,6.172,27.11,18.53,27.11,3.063,0,6.074-.504,9.039-1.528,2.958-1.024,5.69-2.499,8.196-4.441,2.499-1.942,4.749-4.237,6.736-6.894,1.994-2.657,3.598-5.667,4.824-9.039v-50.238h10.416v66.322c0,2.86,1.279,4.29,3.831,4.29v9.19c-2.047,.309-3.477,.459-4.29,.459-2.348,0-4.365-.715-6.051-2.145-1.686-1.43-2.529-3.214-2.529-5.359v-11.026c-3.575,6.224-8.324,11.049-14.24,14.473-5.923,3.417-12.411,5.133-19.456,5.133Z" fill="#fff"/>
  <path d="M878.499,506.016h-10.416v-44.571c0-9.295-1.453-16.136-4.365-20.524-2.913-4.388-7.331-6.586-13.254-6.586-3.063,0-5.946,.557-8.648,1.686-2.709,1.121-5.208,2.702-7.511,4.742-2.296,2.047-4.313,4.471-6.044,7.278-1.739,2.807-3.063,5.901-3.989,9.265v48.71h-10.409v-44.571c0-9.498-1.438-16.392-4.29-20.682-2.86-4.282-7.255-6.427-13.171-6.427-6.029,0-11.387,2.092-16.084,6.277-4.704,4.192-8.068,9.701-10.108,16.543v48.861h-10.416v-79.801h9.491v18.078c3.266-6.134,7.556-10.906,12.87-14.323,5.306-3.424,11.184-5.133,17.612-5.133,6.744,0,12.155,1.889,16.234,5.667,4.087,3.778,6.54,8.731,7.353,14.857,7.459-13.683,17.77-20.524,30.941-20.524,4.388,0,8.143,.82,11.259,2.454s5.615,3.951,7.504,6.969c1.889,3.011,3.266,6.638,4.139,10.868,.866,4.245,1.302,8.964,1.302,14.172v46.716Z" fill="#fff"/>
  <path d="M957.525,507.551c-6.232,0-11.997-1.588-17.311-4.749-5.306-3.169-9.446-7.255-12.403-12.253v15.467h-9.34v-111.811h10.416v48.703c3.567-5.411,7.857-9.777,12.862-13.096,5.005-3.312,10.876-4.975,17.612-4.975,5.517,0,10.522,1.174,15.015,3.522,4.493,2.348,8.294,5.487,11.41,9.423,3.116,3.929,5.517,8.369,7.195,13.322,1.686,4.952,2.529,10.033,2.529,15.241,0,5.615-.971,10.928-2.905,15.933-1.942,4.997-4.621,9.363-8.046,13.096-3.424,3.726-7.451,6.683-12.102,8.881-4.644,2.198-9.626,3.297-14.932,3.297Zm-2.446-9.197c4.388,0,8.392-.888,12.02-2.679,3.628-1.784,6.744-4.185,9.348-7.195,2.597-3.011,4.644-6.435,6.126-10.266,1.475-3.831,2.22-7.782,2.22-11.869,0-4.185-.692-8.219-2.07-12.102-1.377-3.876-3.319-7.323-5.818-10.334-2.506-3.011-5.494-5.411-8.964-7.203-3.47-1.784-7.301-2.679-11.485-2.679-3.169,0-6.126,.534-8.889,1.611-2.755,1.069-5.306,2.521-7.654,4.365-2.348,1.836-4.471,3.959-6.36,6.352-1.889,2.401-3.447,4.93-4.666,7.587v24.814c.406,2.755,1.505,5.336,3.289,7.73,1.784,2.401,3.959,4.471,6.51,6.202,2.551,1.739,5.261,3.116,8.121,4.139,2.852,1.024,5.615,1.528,8.271,1.528Z" fill="#fff"/>
  <path d="M1031.208,409.521v-15.316h10.416v15.316h-10.416Zm0,96.495v-79.801h10.416v79.801h-10.416Z" fill="#fff"/>
  <path d="M1149.446,506.016h-10.409v-44.571c0-9.498-1.385-16.392-4.139-20.682-2.755-4.282-7.045-6.427-12.862-6.427-3.063,0-6.126,.557-9.197,1.686-3.063,1.121-5.923,2.702-8.572,4.742-2.657,2.047-4.982,4.471-6.969,7.278-1.994,2.807-3.5,5.848-4.516,9.114v48.861h-10.416v-79.801h9.491v18.078c1.633-2.86,3.65-5.494,6.051-7.895,2.401-2.393,5.08-4.463,8.046-6.202,2.958-1.731,6.096-3.063,9.415-3.981,3.319-.918,6.766-1.377,10.341-1.377,4.493,0,8.241,.82,11.259,2.454,3.011,1.633,5.434,3.929,7.27,6.887,1.844,2.965,3.169,6.586,3.989,10.876,.813,4.29,1.219,9.039,1.219,14.247v46.716Z" fill="#fff"/>
  <path d="M1221.744,507.084c-5.517,0-10.544-1.144-15.09-3.44-4.546-2.303-8.475-5.336-11.794-9.114-3.319-3.778-5.893-8.121-7.737-13.021-1.836-4.9-2.755-9.957-2.755-15.166,0-5.517,.896-10.8,2.679-15.85,1.784-5.058,4.313-9.476,7.587-13.254,3.266-3.771,7.173-6.789,11.711-9.032,4.546-2.25,9.573-3.372,15.09-3.372,6.841,0,12.765,1.708,17.77,5.133,4.997,3.417,9.287,7.73,12.862,12.938v-16.693h9.348v80.11c0,5.509-1.054,10.386-3.146,14.624-2.092,4.237-4.9,7.79-8.422,10.65-3.522,2.852-7.684,4.997-12.479,6.427-4.802,1.43-9.859,2.145-15.166,2.145-9.092,0-16.445-1.633-22.06-4.9s-10.161-7.654-13.63-13.171l6.435-5.058c3.161,5.11,7.353,8.858,12.554,11.259,5.208,2.401,10.778,3.598,16.701,3.598,3.876,0,7.579-.534,11.101-1.603,3.522-1.076,6.586-2.657,9.19-4.749,2.604-2.092,4.674-4.749,6.209-7.963,1.528-3.221,2.296-6.969,2.296-11.259v-15.775c-3.169,5.103-7.383,9.137-12.637,12.095-5.261,2.965-10.8,4.441-16.618,4.441Zm2.905-8.731c3.063,0,6.074-.557,9.039-1.678,2.958-1.129,5.645-2.634,8.046-4.523,2.393-1.889,4.41-4.004,6.044-6.352s2.709-4.749,3.221-7.203v-24.656c-1.129-2.86-2.679-5.517-4.674-7.97-1.994-2.446-4.215-4.538-6.661-6.277-2.454-1.739-5.08-3.116-7.888-4.139-2.815-1.016-5.645-1.528-8.505-1.528-4.493,0-8.475,.948-11.944,2.83-3.477,1.897-6.435,4.365-8.889,7.436-2.446,3.063-4.313,6.533-5.585,10.409-1.279,3.884-1.919,7.812-1.919,11.794,0,4.29,.768,8.377,2.303,12.26,1.528,3.876,3.62,7.27,6.277,10.183s5.795,5.208,9.423,6.894c3.62,1.686,7.526,2.521,11.711,2.521Z" fill="#fff"/>
  <path d="M810.852,295.177c-11.792-5.749-27.44-9.328-47.329-10.351l-2.372-.118-37.067-1.421c-3.08-3.859-4.63-7.726-5.018-11.973-.382-1.921-.376-3.84-.141-5.758,.018-.156,.07-.308,.092-.463,.256-1.797,.673-3.594,1.214-5.39,.185,.028,.382,.015,.567,.042,4.831,.669,10.056,1.124,14.854,1.124,4.128,0,8.135-.264,12.065-.672,35.916-3.698,62.71-24.303,62.71-61.66,0-13.933-4.262-23.222-8.519-29.418,8.519,1.164,22.452,1.934,29.806,1.934,1.934,0,2.322-.77,2.322-2.322v-31.74c0-.79-.119-1.366-.477-1.754-.179-.207-.66-.22-1.009-.311-.289-.076-.407-.258-.836-.258h-53.804c-.433,0-1.012-.081-1.496-.108-2.145-.134-4.615-.484-7.435-1.068-8.183-1.542-20.518-2.728-34.039-2.728-48.744,0-77.09,29.057-77.09,66.179,0,17.715,6.15,31.553,15.886,41.568,3.225,3.324,6.853,6.233,10.789,8.739-3.984,6.747-6.1,13.961-6.636,21.588-.088,1.21-.24,2.408-.24,3.634-.114,3.063,.122,6.073,.54,9.04,.166,1.197,.426,2.354,.684,3.529,.472,2.171,1.102,4.285,1.869,6.362,.199,.522,.253,1.091,.472,1.606,.237,.711,.593,1.542,.949,2.253l3.321,6.405c.014,.022,.034,.042,.048,.064-25.357,21.943-35.755,37.752-35.755,50.096,0,25.239,22.623,52.878,71.838,58.513,.343,.039,.7,.067,1.045,.104,5.59,.601,11.425,.996,17.699,.996,60.384,0,99.096-31.741,99.096-71.224,0-19.851-8.936-35.464-28.604-45.039Zm-107.264-98.961c0-19.742,11.999-31.741,31.352-31.741,16.247,0,25.536,8.046,29.171,19.738,1.206,3.896,1.784,8.194,1.784,12.73,0,18.976-11.622,30.243-30.955,30.243-20.517,0-31.352-13.163-31.352-30.97Zm-10.841,152.13c0-5.756,7.236-17.961,18.296-25.717,.021,.009,.038,.021,.059,.03,.119-.118,.119-.237,.237-.237l35.817,1.661,3.977,.149,2.391,.11c23.599,1.163,42.943,5.805,42.961,22.819-.051,14.685-16.297,29.817-53.004,29.817-4.03,0-7.882-.237-11.512-.681-.358-.044-.654-.141-1.008-.19-3.187-.431-6.247-.979-9.045-1.711-18.737-4.89-29.168-15.904-29.168-26.05Z" fill="#fff"/>
  <path d="M1022.546,282.929V137.288c0-1.898-.355-2.61-2.728-2.61h-40.68c-2.253,0-3.084,.712-3.084,2.61v137.457c-9.607,8.895-20.518,13.995-35.225,13.995-23.245,0-33.682-14.706-33.682-38.782v-112.67c0-1.898-.356-2.61-2.728-2.61h-40.561c-2.372,0-3.084,.356-3.084,2.61v118.125c0,54.2,28.227,73.888,64.993,73.888,17.434,0,37.122-4.269,53.844-19.687,.356,3.914,1.542,9.607,2.61,13.521,.474,1.542,1.186,2.372,3.913,2.372h35.58c2.372,0,3.558-.83,3.084-2.728-.712-8.183-2.253-19.806-2.253-39.85Z" fill="#fff"/>
  <path d="M1238.358,303.251c-16.345-5.139-21.897-46.906-21.897-46.906l-.003,.004v-48.968c0-42.933-23.246-76.616-76.972-76.616-20.992,0-42.222,3.914-58.944,11.623-1.898,1.186-2.253,1.897-2.253,3.913v33.564c0,2.373,1.897,2.728,3.083,2.373,14.35-6.998,31.311-10.793,50.761-10.793,34.038,0,39.02,20.044,39.02,28.938v4.744c-3.44-.474-12.334-.83-23.957-.83-50.287,0-87.171,20.517-87.171,61.553,0,43.763,33.682,63.45,75.904,63.45,8.526,0,16.644-.462,24.801-1.464l-.022,.028c16.465-1.056,95.512-18.999,77.651-24.615Zm-132.554-37.4c0-16.604,13.52-26.685,44.119-26.685,8.895,0,15.418,.357,21.23,1.186v47.559c-8.539,3.44-17.434,4.626-27.515,4.626-27.871,0-37.833-12.334-37.833-26.685Z" fill="#fff"/>
  <path d="M644.297,303.251c-11.266-3.542-17.402-24.481-20.13-37.155v-58.716c0-42.933-23.127-76.616-76.972-76.616-20.873,0-42.221,3.914-58.825,11.623-2.017,1.186-2.373,1.897-2.373,3.913v33.564c0,2.373,1.897,2.728,3.084,2.373,14.35-6.998,31.429-10.793,50.761-10.793,34.038,0,39.02,20.044,39.02,28.938v4.744c-3.44-.474-12.335-.83-23.958-.83-50.286,0-87.053,20.517-87.053,61.553,0,43.763,33.683,63.45,75.786,63.45,13.982,0,26.922-1.132,40.698-4.178,28.254-5.459,73.999-17.459,59.962-21.872Zm-130.784-37.4c0-16.604,13.521-26.685,44.119-26.685,8.895,0,15.537,.357,21.23,1.186v47.559c-8.421,3.44-17.316,4.626-27.397,4.626-27.871,0-37.953-12.334-37.953-26.685Z" fill="#fff"/>
</svg>